<svg xmlns="http://www.w3.org/2000/svg" viewBox="0 0 841.9 595.3">
  <symbol id="icon-inst" width="16" height="17" viewBox="0 0 16 17">
    <path fill-rule="evenodd" clip-rule="evenodd" d="M11.2535 0.686432H4.28918C1.92413 0.686432 0 2.61065 0 4.9757V11.94C0 14.3052 1.92413 16.2293 4.28918 16.2293H11.2535C13.6187 16.2293 15.5429 14.3051 15.5429 11.94V4.9757C15.543 2.61065 13.6187 0.686432 11.2535 0.686432ZM7.77141 4.45286C5.56302 4.45286 3.76641 6.24947 3.76641 8.45786C3.76641 10.6662 5.56302 12.4627 7.77141 12.4627C9.9798 12.4627 11.7764 10.6662 11.7764 8.45786C11.7764 6.24947 9.9798 4.45286 7.77141 4.45286ZM7.77141 11.0836C6.32351 11.0836 5.14544 9.90567 5.14544 8.45777C5.14544 7.00978 6.32342 5.83181 7.77141 5.83181C9.2194 5.83181 10.3974 7.00978 10.3974 8.45777C10.3974 9.90567 9.21931 11.0836 7.77141 11.0836ZM11.23 3.57957C11.4177 3.39111 11.6787 3.28354 11.9444 3.28354C12.211 3.28354 12.4721 3.39111 12.6596 3.57957C12.8481 3.76712 12.9556 4.02822 12.9556 4.29483C12.9556 4.56053 12.8481 4.82163 12.6596 5.0101C12.4711 5.19764 12.211 5.30613 11.9444 5.30613C11.6787 5.30613 11.4176 5.19764 11.23 5.0101C11.0415 4.82163 10.9331 4.56062 10.9331 4.29483C10.9331 4.02822 11.0414 3.76712 11.23 3.57957Z"/>
  </symbol>
  <symbol id="icon-fb" width="10" height="17" viewBox="0 0 10 17">
    <path d="M6.87437 3.61214C6.89801 3.58541 7.00854 3.4981 7.44262 3.4981L8.75898 3.49757C9.22197 3.49757 9.59847 3.12027 9.59847 2.65645V0.844563C9.59847 0.381535 9.2225 0.00423342 8.7603 0.00343964L7.4081 0C6.10336 0 5.32169 0.0911452 4.52802 0.907C3.73791 1.71915 3.32021 2.85291 3.32021 4.1855V5.86947H1.70303C1.24003 5.86947 0.863403 6.24678 0.863403 6.7106V8.71431C0.863403 9.17813 1.24003 9.55543 1.70303 9.55543H3.32021V16.1589C3.32021 16.6227 3.69684 17 4.15984 17H5.94931C6.4123 17 6.78893 16.6227 6.78893 16.1589V9.55556H8.76571C9.22871 9.55556 9.6052 9.17813 9.6052 8.71457L9.60626 6.71073C9.60626 6.40606 9.44079 6.12414 9.1743 5.97505C9.05082 5.90599 8.90714 5.86947 8.75898 5.86947H6.78893V4.12769C6.78893 3.78161 6.83542 3.65632 6.87437 3.61214Z" />
  </symbol>
  <symbol id="icon-telegram-big" width="25" height="22" viewBox="0 0 25 22">
    <path d="M10.0934 14.2307C9.91111 14.4035 9.80055 14.6386 9.78368 14.8892L9.46822 19.5747C9.42934 20.1521 9.93934 20.6479 10.3579 20.2482C10.4226 20.1864 10.486 20.12 10.5516 20.0511L12.7031 17.8799C13.0586 17.5211 13.6257 17.4837 14.0252 17.7927L19.0737 21.6967C20.1279 22.3171 20.8706 21.9904 21.155 20.6726L24.9278 2.00428L24.9285 2.00299L24.9292 2.00168C25.2631 0.356646 24.3653 -0.28659 23.3384 0.117045L1.16075 9.0831C-0.352826 9.7035 -0.329909 10.5945 0.903454 10.9982L6.11372 12.7095C6.40406 12.8049 6.72207 12.7622 6.97704 12.5938L19.7435 4.15842C20.3633 3.72503 20.9268 3.96483 20.4633 4.39822L10.0934 14.2307Z" /> 
  </symbol>
  <symbol id="icon-youtube" width="24" height="17" viewBox="0 0 24 17">
    <path fill-rule="evenodd" clip-rule="evenodd" d="M23.5058 14.3601C23.9999 12.4601 23.9999 8.51986 23.9999 8.51986C23.9999 8.51986 24.0198 4.56009 23.5058 2.6601C23.2289 1.62013 22.4184 0.79984 21.3904 0.519985C19.5124 0 12.0001 0 12.0001 0C12.0001 0 4.48784 0 2.60977 0.500122C1.60144 0.779977 0.770976 1.62013 0.494351 2.6601C0 4.56009 0 8.5 0 8.5C0 8.5 0 12.4601 0.494351 14.3399C0.771269 15.3799 1.58181 16.2002 2.60977 16.48C4.50747 17 12.0001 17 12.0001 17C12.0001 17 19.5124 17 21.3904 16.4999C22.4184 16.22 23.2289 15.4 23.5058 14.3601ZM15.855 8.5L9.60805 12.1399V4.86011L15.855 8.5Z"/>
  </symbol>
  <symbol id="icon-letter" width="14" height="14" viewBox="0 0 14 14" fill="#fff">
    <path d="M7 0C3.14217 0 0 3.12649 0 6.99959C0 8.19735 0.31106 9.36395 0.902171 10.4061L0.0466149 12.9726C-0.0467184 13.2526 0.0310597 13.5637 0.233282 13.7659C0.464178 13.9736 0.75123 14.0625 1.02662 13.9526L3.59333 13.097C4.6355 13.6881 5.80222 13.9992 7 13.9992C10.8733 13.9992 14 10.8571 14 6.99965C14 3.12649 10.8733 0 7 0V0ZM3.88889 7.77733C3.46884 7.77733 3.11111 7.41962 3.11111 6.99959C3.11111 6.56412 3.46884 6.22186 3.88889 6.22186C4.32439 6.22186 4.66667 6.56412 4.66667 6.99959C4.66667 7.41962 4.32439 7.77733 3.88889 7.77733ZM7 7.77733C6.57995 7.77733 6.22222 7.41962 6.22222 6.99959C6.22222 6.56412 6.57995 6.22186 7 6.22186C7.4355 6.22186 7.77778 6.56412 7.77778 6.99959C7.77778 7.41962 7.4355 7.77733 7 7.77733ZM10.1111 7.77733C9.69106 7.77733 9.33333 7.41962 9.33333 6.99959C9.33333 6.56412 9.69106 6.22186 10.1111 6.22186C10.5466 6.22186 10.8889 6.56412 10.8889 6.99959C10.8889 7.41962 10.5466 7.77733 10.1111 7.77733Z"/>
  </symbol>
  <symbol id="icon-call" width="16" height="16" viewBox="0 0 16 16" fill="#fff">
    <g clip-path="url(#clip0_1101_6616)">
      <path d="M0.43831 6.7872C0.155645 6.02368 -0.0490431 5.24392 0.0126883 4.41542C0.0516766 3.90532 0.243369 3.46995 0.617006 3.11256C1.02313 2.72918 1.40652 2.3263 1.80615 1.93642C2.32599 1.42307 2.97904 1.42632 3.49889 1.93642C3.82054 2.25157 4.13895 2.57322 4.45735 2.89488C4.76601 3.20353 5.07791 3.51219 5.38657 3.8241C5.92916 4.37318 5.93241 5.01324 5.38982 5.55907C4.99994 5.94896 4.6133 6.34209 4.21692 6.72547C4.11295 6.82619 4.10321 6.91067 4.15844 7.03738C4.41836 7.66119 4.79525 8.21677 5.21762 8.73662C6.06886 9.7828 7.03057 10.712 8.17748 11.4301C8.4244 11.5828 8.69407 11.6965 8.95075 11.8362C9.08396 11.9077 9.17168 11.8849 9.2789 11.7745C9.66553 11.3748 10.0619 10.9817 10.4583 10.5886C10.9781 10.0752 11.6279 10.072 12.1478 10.5886C12.7846 11.2189 13.4181 11.8524 14.0485 12.4892C14.5781 13.0221 14.5748 13.6751 14.042 14.2112C13.6813 14.5751 13.3012 14.9195 12.9633 15.2996C12.4694 15.852 11.8456 16.0339 11.1373 15.9949C10.1041 15.9397 9.15219 15.5953 8.23271 15.1502C6.19233 14.1592 4.45085 12.7849 2.99204 11.0499C1.91337 9.76331 1.02313 8.36623 0.43831 6.7872ZM15.2441 7.95035C15.6622 7.95035 16.0049 7.61036 15.9654 7.19414C15.6068 3.41332 12.5878 0.394276 8.80698 0.0356869C8.39076 -0.00378956 8.05077 0.338929 8.05077 0.757021C8.05077 1.17511 8.39122 1.50936 8.80645 1.55818C11.752 1.90448 14.0966 4.24917 14.4429 7.19467C14.4918 7.6099 14.826 7.95035 15.2441 7.95035ZM11.5695 7.19869C11.6558 7.60778 11.9864 7.95035 12.4045 7.95035C12.8225 7.95035 13.1674 7.60944 13.1059 7.1959C12.7764 4.98136 11.0198 3.22468 8.80522 2.89526C8.39168 2.83374 8.05077 3.17857 8.05077 3.59667C8.05077 4.01476 8.39334 4.34535 8.80243 4.43166C9.47698 4.57399 10.0963 4.90789 10.5948 5.40637C11.0932 5.90485 11.4271 6.52414 11.5695 7.19869Z"/>
    </g>
    <defs>
      <clipPath id="clip0_1101_6616">
        <rect width="16" height="16" fill="white"/>
      </clipPath>
    </defs>
  </symbol>
  
  <symbol id="icon-telegram-small" width="16" height="14" viewBox="0 0 16 14" fill="#fff">
    <path d="M0.00760714 0L0 5.33332L6.85714 6.85714L0 8.38096L0.00760714 13.7143L16 6.85714L0.00760714 0Z"/>
  </symbol>
  
  <symbol id="icon-burger" viewBox="0 0 40 40">
      <path  d="M 35 12.5 L 5 12.5 C 4.308594 12.5 3.75 11.941406 3.75 11.25 C 3.75 10.558594 4.308594 10 5 10 L 35 10 C 35.691406 10 36.25 10.558594 36.25 11.25 C 36.25 11.941406 35.691406 12.5 35 12.5 Z M 35 12.5 "/>      
      <path  d="M 35 21.25 L 5 21.25 C 4.308594 21.25 3.75 20.691406 3.75 20 C 3.75 19.308594 4.308594 18.75 5 18.75 L 35 18.75 C 35.691406 18.75 36.25 19.308594 36.25 20 C 36.25 20.691406 35.691406 21.25 35 21.25 Z M 35 21.25 "/>
      <path d="M 35 30 L 5 30 C 4.308594 30 3.75 29.441406 3.75 28.75 C 3.75 28.058594 4.308594 27.5 5 27.5 L 35 27.5 C 35.691406 27.5 36.25 28.058594 36.25 28.75 C 36.25 29.441406 35.691406 30 35 30 Z M 35 30 "/>

  </symbol>
  
  <symbol id="icon-close" viewBox="0 0 40 40">
      <path d="M 22.351562 20 L 29.515625 12.851562 C 30.171875 12.195312 30.171875 11.136719 29.515625 10.484375 C 28.863281 9.828125 27.804688 9.828125 27.148438 10.484375 L 20 17.648438 L 12.851562 10.484375 C 12.195312 9.828125 11.136719 9.828125 10.484375 10.484375 C 9.828125 11.136719 9.828125 12.195312 10.484375 12.851562 L 17.648438 20 L 10.484375 27.148438 C 10.167969 27.464844 9.992188 27.890625 9.992188 28.332031 C 9.992188 28.777344 10.167969 29.203125 10.484375 29.515625 C 10.796875 29.832031 11.222656 30.007812 11.667969 30.007812 C 12.109375 30.007812 12.535156 29.832031 12.851562 29.515625 L 20 22.351562 L 27.148438 29.515625 C 27.464844 29.832031 27.890625 30.007812 28.332031 30.007812 C 28.777344 30.007812 29.203125 29.832031 29.515625 29.515625 C 29.832031 29.203125 30.007812 28.777344 30.007812 28.332031 C 30.007812 27.890625 29.832031 27.464844 29.515625 27.148438 Z M 22.351562 20 "/>
  </symbol>
  
  <symbol id="icon-hours" width="12" height="12" viewBox="0 0 12 12">
      <g clip-path="url(#clip0_80_1186)">
      <path d="M5.70509 0C8.85098 0 11.4102 2.5592 11.4102 5.70509C11.4102 8.85098 8.85098 11.4102 5.70509 11.4102C2.5592 11.4102 -9.53674e-07 8.85098 -9.53674e-07 5.70509C-9.53674e-07 2.5592 2.5592 0 5.70509 0ZM5.22968 5.70509C5.22968 5.968 5.44219 6.18051 5.70509 6.18051H7.60678C7.86969 6.18051 8.0822 5.968 8.0822 5.70509C8.0822 5.44219 7.86969 5.22968 7.60678 5.22968H6.18051V2.37713C6.18051 2.11423 5.968 1.90171 5.70509 1.90171C5.44219 1.90171 5.22968 2.11423 5.22968 2.37713V5.70509Z"/>
      </g>
      <defs>
      <clipPath id="clip0_80_1186">
      <rect width="11.4102" height="11.4102" fill="white"/>
      </clipPath>
      </defs>
  </symbol>
  
  <symbol id="icon-locale" width="9" height="12" viewBox="0 0 9 12">
      <path d="M4.5 0.238037C2.01474 0.238037 0 2.15055 0 4.50981C0 6.86901 3.06673 11.238 4.5 11.238C5.93327 11.238 9 6.86901 9 4.50981C9 2.15055 6.9853 0.238037 4.5 0.238037ZM4.5 6.46774C3.19172 6.46774 2.13116 5.46097 2.13116 4.21902C2.13116 2.97714 3.19172 1.97035 4.5 1.97035C5.80828 1.97035 6.86884 2.97714 6.86884 4.21902C6.86884 5.46097 5.80828 6.46774 4.5 6.46774Z"/>
  </symbol>
</svg>


